<svg width="111" height="30" viewBox="0 0 111 30" fill="none" xmlns="http://www.w3.org/2000/svg">
<path d="M23.8578 21.0632C23.5451 21.0235 23.439 20.6309 23.6901 20.4426C26.8428 18.0744 27.7955 13.7022 25.7638 10.2242L19.7914 0C16.2749 2.00636 14.8885 6.25832 16.4151 9.86537C16.5367 10.1526 16.2461 10.4398 15.9556 10.3196C12.3061 8.81008 8.00294 10.1804 5.9724 13.656L0 23.8803C3.51226 25.8842 7.92445 24.9498 10.3235 21.849C10.5146 21.6021 10.9106 21.7069 10.9508 22.0154C11.4559 25.8914 14.8064 28.8861 18.8651 28.8861H30.8098C30.8098 24.8746 27.7793 21.5624 23.8578 21.0638V21.0632ZM21.9273 20.998H11.8256C11.4199 20.998 11.1665 20.564 11.369 20.2169L16.4199 11.5703C16.6224 11.2233 17.1299 11.2233 17.3324 11.5703L22.3833 20.2169C22.5864 20.564 22.3324 20.998 21.9267 20.998H21.9273Z" fill="#082553"/>
<path d="M77.4633 0.394409H72.5256V29.4463H77.4633V0.394409Z" fill="#082553"/>
<path d="M86.6908 0.394409H81.7532V29.4463H86.6908V0.394409Z" fill="#082553"/>
<path d="M109.804 24.1775C110.316 22.9784 110.571 21.6435 110.571 20.1998C110.571 18.756 110.311 17.4218 109.804 16.222C109.297 15.027 108.574 13.9888 107.661 13.1343C106.745 12.2792 105.638 11.5993 104.377 11.1191C103.108 10.6394 101.697 10.3948 100.18 10.3948C98.6638 10.3948 97.2528 10.6435 95.9873 11.1362C94.7225 11.6289 93.6159 12.3141 92.6986 13.1728C91.7861 14.0279 91.0629 15.0524 90.556 16.2214C90.0491 17.3904 89.7891 18.6903 89.7891 20.0772C89.7891 21.547 90.0491 22.912 90.556 24.1379C91.0629 25.359 91.7771 26.4101 92.6812 27.2653C93.5847 28.1204 94.6824 28.7961 95.9436 29.2758C97.2132 29.7554 98.6111 30 100.101 30C101.591 30 103.072 29.756 104.355 29.2758C105.629 28.7961 106.74 28.1198 107.657 27.2611C108.57 26.406 109.293 25.3685 109.8 24.1728L109.804 24.1775ZM104.152 24.3653C103.16 25.4206 101.824 25.9529 100.18 25.9529C98.5362 25.9529 97.2 25.4212 96.2084 24.3653C95.2252 23.323 94.7267 21.9053 94.7267 20.1565C94.7267 18.4078 95.2252 17.1079 96.2084 16.0526C97.2 14.9843 98.5404 14.443 100.185 14.443C101.83 14.443 103.165 14.9837 104.162 16.0526C105.145 17.1127 105.643 18.5037 105.643 20.1962C105.643 21.8887 105.145 23.3189 104.162 24.3611L104.153 24.3653H104.152Z" fill="#082553"/>
<path d="M59.3448 3.7397L58.9494 2.81883C58.1549 0.969408 56.1555 -0.00889769 54.2394 0.394387L53.7996 1.38927L41.3887 29.4463H46.7979L49.3724 23.2484L49.4827 22.9777H62.1968L62.307 23.2567L64.727 29.4457H70.3789L59.3448 3.7397ZM51.1669 18.9265L51.4186 18.3249L53.2214 13.9983C53.6492 12.991 54.059 11.9919 54.4425 11.0278C54.8218 10.0685 55.2052 9.06945 55.5845 8.05739L55.9985 6.94525L56.4131 8.05739C56.7966 9.09077 57.1759 10.0939 57.533 11.032C57.9074 12.0133 58.2825 13.0075 58.657 14.0107L60.3412 18.3332L60.5707 18.9265H51.1669Z" fill="#082553"/>
</svg>
