<svg width="74" height="20" viewBox="0 0 74 20" fill="none" xmlns="http://www.w3.org/2000/svg">
<path d="M15.9052 14.0421C15.6967 14.0157 15.626 13.7539 15.7934 13.6284C17.8952 12.0496 18.5303 9.1348 17.1758 6.81616L13.1942 0C10.8499 1.33757 9.92564 4.17221 10.9434 6.57692C11.0245 6.76839 10.8308 6.95987 10.637 6.87972C8.20406 5.87339 5.33529 6.78695 3.9816 9.10401L0 15.9202C2.34151 17.2562 5.28297 16.6332 6.88232 14.566C7.00974 14.4014 7.27377 14.4713 7.30053 14.677C7.63726 17.2609 9.87091 19.2574 12.5767 19.2574H20.5399C20.5399 16.583 18.5195 14.3749 15.9052 14.0425V14.0421ZM14.6182 13.9987H7.88371C7.61329 13.9987 7.44433 13.7093 7.57934 13.478L10.9466 7.71353C11.0816 7.48218 11.4199 7.48218 11.5549 7.71353L14.9222 13.478C15.0576 13.7093 14.8883 13.9987 14.6178 13.9987H14.6182Z" fill="#9EDCFF"/>
<path d="M51.6421 0.262695H48.3503V19.6306H51.6421V0.262695Z" fill="#9EDCFF"/>
<path d="M57.794 0.262695H54.5022V19.6306H57.794V0.262695Z" fill="#9EDCFF"/>
<path d="M73.2026 16.1182C73.5437 15.3187 73.7143 14.4288 73.7143 13.4663C73.7143 12.5038 73.5409 11.6143 73.2026 10.8145C72.8647 10.0178 72.3826 9.32571 71.7742 8.75602C71.1631 8.18593 70.4253 7.7327 69.5849 7.41252C68.7385 7.09274 67.7978 6.92969 66.7868 6.92969C65.7759 6.92969 64.8352 7.0955 63.9916 7.42397C63.1484 7.75244 62.4106 8.20922 61.799 8.78168C61.1907 9.35176 60.7086 10.0348 60.3707 10.8141C60.0327 11.5934 59.8594 12.46 59.8594 13.3846C59.8594 14.3645 60.0327 15.2745 60.3707 16.0917C60.7086 16.9058 61.1847 17.6066 61.7875 18.1767C62.3898 18.7467 63.1216 19.1972 63.9624 19.517C64.8088 19.8368 65.7407 19.9998 66.7341 19.9998C67.7275 19.9998 68.7149 19.8372 69.5701 19.517C70.4193 19.1972 71.1603 18.7463 71.7714 18.1739C72.3798 17.6038 72.8619 16.9121 73.1998 16.115L73.2026 16.1182ZM69.4347 16.2433C68.7736 16.9469 67.8829 17.3018 66.7868 17.3018C65.6908 17.3018 64.8 16.9473 64.139 16.2433C63.4835 15.5485 63.1511 14.6033 63.1511 13.4375C63.1511 12.2717 63.4835 11.4051 64.139 10.7016C64.8 9.98936 65.6936 9.62852 66.79 9.62852C67.8865 9.62852 68.7768 9.98897 69.4411 10.7016C70.0966 11.4083 70.4285 12.3356 70.4285 13.464C70.4285 14.5923 70.0966 15.5457 69.4411 16.2406L69.4351 16.2433H69.4347Z" fill="#9EDCFF"/>
<path d="M39.563 2.49329L39.2994 1.87938C38.7698 0.646435 37.4368 -0.00576901 36.1594 0.263087L35.8662 0.926346L27.5923 19.631H31.1984L32.9148 15.4991L32.9883 15.3187H41.4644L41.5379 15.5046L43.1512 19.6306H46.9191L39.563 2.49329ZM34.1111 12.6179L34.2789 12.2167L35.4808 9.33235C35.766 8.6608 36.0392 7.99478 36.2948 7.35205C36.5477 6.71248 36.8033 6.04646 37.0562 5.37175L37.3322 4.63033L37.6086 5.37175C37.8642 6.06067 38.1171 6.72946 38.3551 7.35482C38.6048 8.009 38.8548 8.67186 39.1045 9.34064L40.2273 12.2223L40.3803 12.6179H34.1111Z" fill="#9EDCFF"/>
</svg>
